<?xml version="1.0" encoding="UTF-8"?>
<svg id="Cesium_ion_vertical" xmlns="http://www.w3.org/2000/svg" version="1.1" viewBox="0 0 349.4 218.6">
  <!-- Generator: Adobe Illustrator 29.2.1, SVG Export Plug-In . SVG Version: 2.1.0 Build 116)  -->
  <defs>
    <style>
      .st0 {
        fill: #fff;
      }

      .st1 {
        fill: #6dabe4;
      }

      .st2 {
        fill: #709c49;
      }
    </style>
  </defs>
  <g id="Cesium_ion">
    <g id="TM">
      <path id="path992" class="st0" d="M341.5,187.5v-2.9h-1.1v-.6h2.8v.6h-1.1v2.9h-.7Z"/>
      <path id="path994" class="st0" d="M343.7,187.5v-3.5h1.1l.6,2.4.6-2.4h1.1v3.5h-.7v-2.8l-.7,2.8h-.7l-.7-2.8v2.8h-.5Z"/>
    </g>
    <g id="ion">
      <path id="path48-6" class="st1" d="M270.2,180.4c0-1.2.4-2.1,1.3-2.9.9-.9,1.8-1.3,3.2-1.3s2.3.4,3.2,1.2,1.3,1.7,1.3,3-.4,2.2-1.3,3-1.9,1.2-3.2,1.2-2.3-.4-3.2-1.3c-.9-.8-1.3-1.7-1.3-2.9ZM271.1,187.3h7v28h-7v-28Z"/>
      <path id="path50-6" class="st1" d="M281.2,201.3c0-2.2.4-4.2,1.2-6,.8-1.8,1.8-3.3,3.2-4.7,1.4-1.3,2.9-2.2,4.9-3,1.8-.7,3.8-1.1,5.9-1.1s4.1.4,5.9,1.1c1.8.7,3.5,1.7,4.9,3,1.4,1.3,2.4,2.8,3.2,4.7.8,1.8,1.2,3.8,1.2,6s-.4,4.2-1.2,6c-.8,1.8-1.8,3.3-3.2,4.7-1.4,1.3-2.9,2.2-4.9,3-1.8.7-3.8,1.1-5.9,1.1s-4.1-.4-5.9-1.1c-1.8-.7-3.5-1.7-4.9-3-1.4-1.3-2.4-2.8-3.2-4.7-.8-1.8-1.2-3.9-1.2-6ZM288.2,201.3c0,1.1.2,2.1.6,3.1s.9,1.9,1.7,2.7c.7.8,1.6,1.4,2.6,1.8,1,.5,2.1.7,3.4.7s2.4-.2,3.4-.7,1.8-1.1,2.6-1.8c.7-.8,1.3-1.7,1.7-2.7.4-1,.6-2,.6-3.1s-.2-2.1-.6-3.1-.9-1.9-1.7-2.7c-.7-.8-1.6-1.4-2.6-1.8-1-.5-2.1-.7-3.4-.7s-2.4.2-3.4.7-1.8,1.1-2.6,1.8c-.7.8-1.3,1.7-1.7,2.7-.4,1-.6,1.9-.6,3.1Z"/>
      <path id="path52-7" class="st1" d="M314.6,187.3h6.6v4.5h0c.7-1.4,1.7-2.6,3-3.6,1.4-1.1,3.2-1.6,5.5-1.6s3.4.3,4.8,1c1.3.6,2.3,1.5,3.2,2.4.8,1,1.4,2.1,1.7,3.5.4,1.4.5,2.7.5,4.2v17.6h-7v-14.2c0-.8,0-1.7,0-2.6s-.3-1.8-.6-2.7c-.3-.9-.9-1.6-1.6-2.1-.7-.6-1.7-.9-2.8-.9s-2.1.2-2.9.6c-.8.4-1.5.9-1.9,1.6-.5.7-.9,1.5-1.2,2.2-.2.9-.4,1.7-.4,2.7v15.2h-7v-27.8Z"/>
    </g>
    <g id="Cesium">
      <path id="XMLID_98_-1" class="st0" d="M9.9,214.8c-2.1-.4-3.8-1.2-4.9-2.3-1.2-1.1-2.1-2.6-2.6-4.5-.5-1.8-.8-4.3-.8-7.1v-4.4c0-3.4.3-6.2.8-8.2.5-2.1,1.4-3.7,2.6-4.8,1.2-1.1,2.9-1.8,5.1-2.3,2.1-.4,4.8-.6,8-.6h7.4c3.4,0,6.3.2,8.5.4,2.2.4,4,.9,5.2,1.8s2.1,2.1,2.6,3.6c.5,1.5.8,3.5.8,6h-8.6c0-.7,0-1.2-.3-1.8s-.6-1-1.1-1.3c-.6-.4-1.5-.6-2.6-.8s-2.7-.3-4.8-.3h-6.4c-1.8,0-3.3,0-4.6.3-1.1.2-2,.5-2.6,1.1-.6.5-1.1,1.3-1.2,2.4s-.3,2.6-.3,4.4v3.8c0,1.7,0,3.1.3,4.1s.6,1.8,1.2,2.3,1.4.9,2.6,1.1c1.1.2,2.6.3,4.4.3h6.8c1.8,0,3.3,0,4.5-.2,1.1,0,2-.4,2.6-.6.6-.4,1.1-.8,1.3-1.4.2-.6.4-1.4.4-2.4h8.6c0,2.3-.2,4.2-.6,5.8-.4,1.6-1.1,2.8-2.4,3.7-1.2,1-3,1.6-5.3,2s-5.3.6-9,.6h-7.7c-3.2,0-5.8-.2-7.9-.6h0Z"/>
      <path id="XMLID_96_-8" class="st0" d="M84,180.5v7h-27.3v6.4h26.4v7h-26.4v7.5h27.3v7h-35.6v-34.8h35.6Z"/>
      <path id="XMLID_94_-6" class="st0" d="M117.8,180.5c4.4,0,7.7.8,9.7,2.4,2.1,1.6,3.2,4.1,3.2,7.4h-9c0-.5,0-1-.2-1.3s-.4-.7-.6-.9c-.4-.3-.8-.4-1.3-.5s-1.2-.2-2.1-.2h-14c-1.1,0-2.1.2-2.9.6-.8.4-1.1,1.3-1.1,2.6s0,1.2.3,1.7c.2.4.4.7.8.9s.8.3,1.3.4c.5,0,1.1,0,1.7,0l15.4.6c1.9,0,3.7.3,5.2.4,1.5.3,2.7.7,3.7,1.5,1,.7,1.8,1.8,2.2,3.1.5,1.3.8,3.2.8,5.5s-.2,3.4-.6,4.8-1.1,2.4-2,3.3c-.9.9-2.1,1.5-3.6,1.9s-3.3.6-5.5.6h-17.3c-2.2,0-4.1-.2-5.5-.6s-2.7-1-3.6-1.8c-.9-.8-1.6-1.8-1.9-3.1s-.5-2.7-.5-4.4h8.5c0,.9.4,1.6,1.1,2.1.8.5,1.8.8,2.9.8h13.9c1.8,0,3.2-.3,4.1-.7.9-.4,1.3-1.4,1.3-2.8s0-1.1-.3-1.7c-.2-.4-.4-.8-.9-1.1-.4-.4-1-.5-1.8-.7s-1.8-.3-2.9-.4l-13.4-.5c-2.4,0-4.4-.3-6-.5s-3-.7-4-1.3c-1.1-.6-1.8-1.6-2.2-2.8s-.7-3-.7-5.1.3-3.4.7-4.7c.4-1.3,1.2-2.3,2.2-3.2,1-.8,2.3-1.4,3.9-1.8,1.6-.4,3.5-.5,5.7-.5h15.3Z"/>
      <path id="XMLID_92_-3" class="st0" d="M136.5,180.5h8.4v34.8h-8.4v-34.8Z"/>
      <path id="XMLID_90_-2" class="st0" d="M159.1,202.1c0,1.2.2,2.2.4,3s.7,1.4,1.3,1.9c.6.4,1.3.8,2.3,1,1,.2,2.1.3,3.5.3h9.1c1.3,0,2.5,0,3.4-.3s1.7-.5,2.3-1.1c.5-.5,1-1.1,1.2-1.9s.4-1.8.4-3v-21.6h8.4v22.5c0,2.3-.3,4.2-.7,5.8s-1.2,2.8-2.4,3.8c-1.1,1-2.6,1.7-4.4,2.1s-4.1.6-6.8.6h-12.3c-2.6,0-4.8-.3-6.5-.7s-3.3-1.1-4.4-2.2c-1.1-1-1.9-2.3-2.5-3.9-.5-1.6-.8-3.4-.8-5.6v-22.5h8.4v21.7Z"/>
      <path id="XMLID_88_-0" class="st0" d="M210,180.5l14.4,25.6,14.9-25.6h12.5v34.8h-8.4v-25.5l-14.4,25.5h-9l-14.4-25.5v25.5h-8.4v-34.8h12.8Z"/>
    </g>
  </g>
  <g id="logo">
    <g>
      <path class="st0" d="M94.2,79.3c0-42.3,34.3-76.6,76.7-76.6s76.6,34.3,76.6,76.6-34.3,76.6-76.6,76.6-76.7-34.3-76.7-76.6"/>
      <path class="st2" d="M232.8,69.3c-2.2,0-4.4,1.2-6.1,3.5l-21.2,28c-3.5,4.6-8.5,7.3-13.7,7.3h-.1c-5.2,0-10.2-2.7-13.7-7.3l-21.2-28c-1.7-2.2-3.8-3.5-6.1-3.5s-4.4,1.2-6.1,3.5l-21.2,28c-3.5,4.6-8.4,7.3-13.6,7.3,10.8,22.8,34,38.6,60.9,38.6s67.4-30.2,67.4-67.4-.2-5.2-.5-7.8c-1.3-1.4-3-2.2-4.8-2.2"/>
      <path class="st1" d="M193.4,54.7c-3.9,0-7-3.2-7-7s3.2-7,7-7,7,3.2,7,7-3.1,7-7,7M170.9,11.9c-37.2,0-67.4,30.2-67.4,67.4s.8,11.6,2.3,17.1c1.3,1,2.7,1.6,4.1,1.6,2.2,0,4.4-1.2,6.1-3.4l21.2-28.1c3.5-4.7,8.5-7.3,13.7-7.3s10.2,2.7,13.7,7.3l20.4,27,.9,1.1c1.7,2.2,3.8,3.4,6,3.4s4.3-1.2,6-3.4l.9-1.1,20.4-27c3.5-4.7,8.5-7.3,13.7-7.3s1.6,0,2.5.2c-8.7-27.5-34.3-47.5-64.5-47.5"/>
    </g>
  </g>
</svg>